<?xml version="1.0" encoding="iso-8859-1"?>
<!-- Uploaded to: SVG Repo, www.svgrepo.com, Generator: SVG Repo Mixer Tools -->
<svg height="800px" width="800px" version="1.1" id="Layer_1" xmlns="http://www.w3.org/2000/svg" xmlns:xlink="http://www.w3.org/1999/xlink" 
	 viewBox="0 0 512 512" xml:space="preserve">
<g transform="translate(1 1)">
	<path style="fill:currentColor;" d="M24.6,511c-5.12,0-8.533-3.413-8.533-8.533v-8.533H7.533C2.413,493.933-1,490.52-1,485.4
		s3.413-8.533,8.533-8.533h8.533V7.533C16.067,2.413,19.48-1,24.6-1s8.533,3.413,8.533,8.533v469.333h469.333
		c5.12,0,8.533,3.413,8.533,8.533s-3.413,8.533-8.533,8.533H33.133v8.533C33.133,507.587,29.72,511,24.6,511z M75.8,246.467H58.733
		c-5.12,0-8.533-3.413-8.533-8.533c0-5.12,3.413-8.533,8.533-8.533H75.8c5.12,0,8.533,3.413,8.533,8.533
		C84.333,243.053,80.92,246.467,75.8,246.467z M75.8,212.333H58.733c-5.12,0-8.533-3.413-8.533-8.533
		c0-5.12,3.413-8.533,8.533-8.533H75.8c5.12,0,8.533,3.413,8.533,8.533C84.333,208.92,80.92,212.333,75.8,212.333z M75.8,178.2
		H58.733c-5.12,0-8.533-3.413-8.533-8.533c0-5.12,3.413-8.533,8.533-8.533H75.8c5.12,0,8.533,3.413,8.533,8.533
		C84.333,174.787,80.92,178.2,75.8,178.2z M75.8,144.067H58.733c-5.12,0-8.533-3.413-8.533-8.533S53.613,127,58.733,127H75.8
		c5.12,0,8.533,3.413,8.533,8.533S80.92,144.067,75.8,144.067z M75.8,109.933H58.733c-5.12,0-8.533-3.413-8.533-8.533
		c0-5.12,3.413-8.533,8.533-8.533H75.8c5.12,0,8.533,3.413,8.533,8.533C84.333,106.52,80.92,109.933,75.8,109.933z M75.8,75.8
		H58.733c-5.12,0-8.533-3.413-8.533-8.533s3.413-8.533,8.533-8.533H75.8c5.12,0,8.533,3.413,8.533,8.533S80.92,75.8,75.8,75.8z
		 M75.8,41.667H58.733c-5.12,0-8.533-3.413-8.533-8.533s3.413-8.533,8.533-8.533H75.8c5.12,0,8.533,3.413,8.533,8.533
		S80.92,41.667,75.8,41.667z"/>
	<path style="fill:currentColor" d="M135.533,365.933c0,23.893-18.773,42.667-42.667,42.667S50.2,389.827,50.2,365.933
		c0-23.893,18.773-42.667,42.667-42.667S135.533,342.04,135.533,365.933L135.533,365.933z"/>
	<path style="fill:currentColor;" d="M92.867,417.133c-28.16,0-51.2-23.04-51.2-51.2s23.04-51.2,51.2-51.2s51.2,23.04,51.2,51.2
		S121.027,417.133,92.867,417.133z M92.867,331.8c-18.773,0-34.133,15.36-34.133,34.133s15.36,34.133,34.133,34.133
		S127,384.707,127,365.933S111.64,331.8,92.867,331.8z"/>
	<path style="fill:currentColor" d="M237.933,263.533c0,23.893-18.773,42.667-42.667,42.667S152.6,287.427,152.6,263.533
		c0-23.893,18.773-42.667,42.667-42.667S237.933,239.64,237.933,263.533L237.933,263.533z"/>
	<path style="fill:currentColor;" d="M195.267,314.733c-28.16,0-51.2-23.04-51.2-51.2c0-28.16,23.04-51.2,51.2-51.2s51.2,23.04,51.2,51.2
		C246.467,291.693,223.427,314.733,195.267,314.733z M195.267,229.4c-18.773,0-34.133,15.36-34.133,34.133
		s15.36,34.133,34.133,34.133s34.133-15.36,34.133-34.133S214.04,229.4,195.267,229.4z"/>
	<path style="fill:currentColor" d="M502.467,237.933c0,23.893-18.773,42.667-42.667,42.667c-23.893,0-42.667-18.773-42.667-42.667
		s18.773-42.667,42.667-42.667C483.693,195.267,502.467,214.04,502.467,237.933L502.467,237.933z"/>
	<path style="fill:currentColor;" d="M459.8,289.133c-28.16,0-51.2-23.04-51.2-51.2s23.04-51.2,51.2-51.2s51.2,23.04,51.2,51.2
		S487.96,289.133,459.8,289.133z M459.8,203.8c-18.773,0-34.133,15.36-34.133,34.133s15.36,34.133,34.133,34.133
		s34.133-15.36,34.133-34.133S478.573,203.8,459.8,203.8z"/>
	<path style="fill:currentColor" d="M348.867,374.467c0,23.893-18.773,42.667-42.667,42.667c-23.893,0-42.667-18.773-42.667-42.667
		c0-23.893,18.773-42.667,42.667-42.667C330.093,331.8,348.867,350.573,348.867,374.467L348.867,374.467z"/>
	<g>
		<path style="fill:currentColor;" d="M306.2,425.667c-28.16,0-51.2-23.04-51.2-51.2c0-28.16,23.04-51.2,51.2-51.2s51.2,23.04,51.2,51.2
			C357.4,402.627,334.36,425.667,306.2,425.667z M306.2,340.333c-18.773,0-34.133,15.36-34.133,34.133
			c0,18.773,15.36,34.133,34.133,34.133s34.133-15.36,34.133-34.133C340.333,355.693,324.973,340.333,306.2,340.333z"/>
		<path style="fill:currentColor;" d="M340.333,357.4c-2.56,0-4.267-0.853-5.973-2.56c-3.413-3.413-3.413-8.533,0-11.947l85.333-85.333
			c3.413-3.413,8.533-3.413,11.947,0c3.413,3.413,3.413,8.533,0,11.947l-85.333,85.333C344.6,356.547,342.893,357.4,340.333,357.4z
			 M280.6,348.867c-2.56,0-4.267-0.853-5.973-2.56l-51.2-51.2c-3.413-3.413-3.413-8.533,0-11.947c3.413-3.413,8.533-3.413,11.947,0
			l51.2,51.2c3.413,3.413,3.413,8.533,0,11.947C284.867,348.013,283.16,348.867,280.6,348.867z M118.467,340.333
			c-2.56,0-4.267-0.853-5.973-2.56c-3.413-3.413-3.413-8.533,0-11.947l42.667-42.667c3.413-3.413,8.533-3.413,11.947,0
			s3.413,8.533,0,11.947l-42.667,42.667C122.733,339.48,121.027,340.333,118.467,340.333z"/>
	</g>
</g>
</svg>